<svg width="187px" height="113px" viewBox="0 0 187 113" version="1.1" xmlns="http://www.w3.org/2000/svg" xmlns:xlink="http://www.w3.org/1999/xlink">
    <!-- Generator: Sketch 46.2 (44496) - http://www.bohemiancoding.com/sketch -->
    <desc>Created with Sketch.</desc>
    <defs></defs>
    <g id="Home" stroke="none" stroke-width="1" fill="none" fill-rule="evenodd">
        <g id="Desktop-HD" transform="translate(-45.000000, -19.000000)">
            <g id="Logo" transform="translate(50.000000, 22.000000)">
                <path d="M89,92.2307692 L95.9654585,92.2307692 L95.9654585,94.2417582 L91.2994405,94.2417582 L91.2994405,96.9285714 L95.5458526,96.9285714 L95.5458526,98.9395604 L91.2994405,98.9395604 L91.2994405,101.758242 L96.0493797,101.758242 L96.0493797,103.769231 L89,103.769231 L89,92.2307692 Z M100.262223,97.7527473 L99.3390902,95.9395604 L99.2551691,95.9395604 L99.5237169,97.7527473 L99.5237169,103.769231 L97.341766,103.769231 L97.341766,92.1483516 L99.0201897,92.1483516 L103.468013,98.2967033 L104.357577,100.06044 L104.441498,100.06044 L104.172951,98.2967033 L104.172951,92.2307692 L106.354901,92.2307692 L106.354901,103.851648 L104.676478,103.851648 L100.262223,97.7527473 Z M111.77621,92.3461538 C112.03357,92.3021976 112.310507,92.2609892 112.60703,92.2225275 C112.903553,92.1840657 113.200071,92.1538463 113.496594,92.1318681 C113.793118,92.10989 114.081244,92.0934066 114.360983,92.0824176 C114.640721,92.0714285 114.898077,92.0659341 115.133058,92.0659341 C115.681345,92.0659341 116.221233,92.1153841 116.752737,92.2142857 C117.28424,92.3131873 117.759789,92.4835153 118.179397,92.7252747 C118.599005,92.9670342 118.934686,93.2994484 119.186451,93.7225275 C119.438216,94.1456065 119.564096,94.675821 119.564096,95.3131868 C119.564096,96.2582465 119.340309,97.0274696 118.892727,97.6208791 C118.445145,98.2142887 117.846513,98.6263725 117.096813,98.8571429 L117.919241,99.3681319 L120.604719,103.769231 L117.95281,103.769231 L115.284116,99.2527473 L114.075651,99.0384615 L114.075651,103.769231 L111.77621,103.769231 L111.77621,92.3461538 Z M115.3009,94.0769231 C115.06592,94.0769231 114.83374,94.0824175 114.604354,94.0934066 C114.374968,94.1043957 114.198736,94.1263735 114.075651,94.1593407 L114.075651,97.5054945 L115.049136,97.5054945 C115.686941,97.5054945 116.196057,97.3626388 116.576502,97.0769231 C116.956947,96.7912074 117.147166,96.3186846 117.147166,95.6593407 C117.147166,95.1648327 116.990515,94.7774739 116.677207,94.4972527 C116.3639,94.2170316 115.905136,94.0769231 115.3009,94.0769231 Z M120.537582,98 C120.537582,96.0769135 120.968373,94.596159 121.829968,93.5576923 C122.691564,92.5192256 123.922395,92 125.522501,92 C126.361717,92 127.094621,92.1428557 127.721236,92.4285714 C128.34785,92.7142871 128.868157,93.1208765 129.28217,93.6483516 C129.696183,94.1758268 130.003891,94.8076886 130.205303,95.543956 C130.406715,96.2802235 130.507419,97.0988966 130.507419,98 C130.507419,99.9230865 130.073831,101.403841 129.206641,102.442308 C128.339451,103.480774 127.111416,104 125.522501,104 C124.672095,104 123.933596,103.857144 123.306981,103.571429 C122.680367,103.285713 122.162858,102.879124 121.754439,102.351648 C121.346021,101.824173 121.04111,101.192311 120.839698,100.456044 C120.638287,99.7197765 120.537582,98.9011034 120.537582,98 Z M122.954512,98 C122.954512,98.5824205 123.004864,99.1181294 123.10557,99.6071429 C123.206276,100.096156 123.36013,100.516482 123.567137,100.868132 C123.774144,101.219782 124.039891,101.494505 124.364388,101.692308 C124.688885,101.890111 125.074919,101.989011 125.522501,101.989011 C126.339338,101.989011 126.971538,101.675827 127.419119,101.049451 C127.866701,100.423074 128.090489,99.4066004 128.090489,98 C128.090489,97.4395576 128.042934,96.9175848 127.947823,96.4340659 C127.852712,95.950547 127.704452,95.5274743 127.503041,95.1648352 C127.301629,94.802196 127.038678,94.5192318 126.714181,94.3159341 C126.389685,94.1126363 125.992462,94.010989 125.522501,94.010989 C124.705664,94.010989 124.073464,94.3324144 123.625882,94.9752747 C123.1783,95.6181351 122.954512,96.6263668 122.954512,98 Z M138.110679,92.2307692 L140.29263,92.2307692 L140.29263,99.6813187 C140.29263,100.428575 140.191925,101.071426 139.990513,101.60989 C139.789101,102.148354 139.509367,102.593405 139.151301,102.945055 C138.793236,103.296705 138.35685,103.554944 137.842131,103.71978 C137.327412,103.884616 136.762348,103.967033 136.146923,103.967033 C133.170503,103.967033 131.682316,102.631881 131.682316,99.9615385 L131.682316,92.2307692 L133.981756,92.2307692 L133.981756,99.5164835 C133.981756,99.9670352 134.023716,100.3489 134.107638,100.662088 C134.19156,100.975276 134.323035,101.228021 134.502068,101.42033 C134.6811,101.612638 134.904888,101.75 135.173437,101.832418 C135.441986,101.914836 135.755289,101.956044 136.113354,101.956044 C136.818296,101.956044 137.327413,101.763738 137.64072,101.379121 C137.954027,100.994504 138.110679,100.373631 138.110679,99.5164835 L138.110679,92.2307692 Z M150.178545,94.2417582 L146.754561,94.2417582 L146.754561,103.769231 L144.45512,103.769231 L144.45512,94.2417582 L141.014352,94.2417582 L141.014352,92.2307692 L150.178545,92.2307692 L150.178545,94.2417582 Z M150.95062,92.2307692 L157.916079,92.2307692 L157.916079,94.2417582 L153.250061,94.2417582 L153.250061,96.9285714 L157.496473,96.9285714 L157.496473,98.9395604 L153.250061,98.9395604 L153.250061,101.758242 L158,101.758242 L158,103.769231 L150.95062,103.769231 L150.95062,92.2307692 Z" id="en-route" fill="#CBCBCB" fill-rule="evenodd"></path>
                <g id="Group" stroke-width="1" fill-rule="evenodd" transform="translate(21.000000, 10.000000)" fill="#FFFFFF">
                    <polygon id="E" points="7.79662379 66.3430636 7.79662379 8.89196184 0 7.49541369 0 0.705300239 54.2821543 0.705300239 55.6551447 17.7046623 47.6623794 17.7046623 44.2299035 8.16960935 24.4196141 7.20647269 24.4196141 32.8259078 36.8745981 32.5369668 38.6889068 24.5910894 45.8480707 24.5910894 45.8480707 49.1029174 38.6889068 49.1029174 36.9726688 40.6273148 24.4196141 40.3383738 24.4196141 67.0172592 46.4855305 65.7170247 52.6149518 53.2925618 61 55.6522466 58.4501608 74 0.147106109 74 0.147106109 67.5469844"></polygon>
                    <path d="M129.277815,66.4384365 L136.882699,67.6273616 L136.882699,74 L103.928202,74 L103.928202,67.6273616 L112.800566,66.4859935 L112.800566,43.0403909 C111.760577,43.1038005 108.738153,43.1355049 103.733205,43.1355049 C102.530717,43.7378966 101.376996,44.9268098 100.272008,46.7022801 C99.1670189,48.4777505 98.1514196,50.4751246 97.2251791,52.6944625 C96.2989386,54.9138005 95.2183409,57.7196356 93.9833535,61.1120521 C92.3258705,65.5507279 90.9934042,68.8083501 89.9859145,70.8850163 C88.9784249,72.9616825 87.9709503,74 86.9634606,74 L68,74 L68,67.6273616 L71.0712031,66.5811075 C71.9811938,66.3591737 72.8586716,65.5586388 73.703663,64.1794788 C74.5486543,62.8003188 75.6861256,60.6364968 77.1161109,57.6879479 C78.5135966,54.7393989 79.7891893,52.2268291 80.9429275,50.1501629 C82.0966657,48.0734967 83.4778808,46.1395312 85.0866143,44.3482085 C86.6953478,42.5568857 88.4746778,41.2649334 90.4246578,40.4723127 C87.3046898,39.5211679 84.6722563,37.9835068 82.5272783,35.8592834 C80.3823003,33.73506 78.7817158,31.3176031 77.7254766,28.6068404 C76.6692374,25.8960777 76.1411258,23.1457251 76.1411258,20.3557003 C76.1411258,15.7585004 77.0673524,12.0570173 78.9198334,9.25114007 C80.7723144,6.44526284 83.7784884,4.3686278 87.9384458,3.02117264 C92.0984031,1.67371748 97.6882619,1 104.70819,1 C106.69067,1 108.591872,1.04755653 110.411853,1.14267101 C112.231834,1.23778549 113.336806,1.3011942 113.726802,1.33289902 C117.106768,1.52312799 119.657953,1.61824104 121.380435,1.61824104 L136.541454,1.61824104 L136.541454,8.3237785 L129.277815,9.65537459 L129.277815,66.4384365 Z M96.6158134,32.7680782 C98.598293,35.367874 101.393222,36.6677524 105.000685,36.6677524 L108.705629,36.7153094 C110.915606,36.7153094 112.280572,36.6360486 112.800566,36.4775244 L112.800566,7.94332248 C111.273082,7.6262742 109.160635,7.46775244 106.463163,7.46775244 C101.88071,7.46775244 98.598293,8.58533084 96.6158134,10.8205212 C94.6333337,13.0557115 93.6421087,16.4401511 93.6421087,20.9739414 C93.6421087,26.2369427 94.6333337,30.1682823 96.6158134,32.7680782 Z" id="Combined-Shape"></path>
                </g>
                <polyline id="Path-2" stroke="#979797" stroke-width="1" points="84 98 0 98 0 0 177 0 177 98 162 98"></polyline>
            </g>
        </g>
    </g>
</svg>